<?xml version="1.0" standalone="no"?>
<!DOCTYPE svg PUBLIC "-//W3C//DTD SVG 20010904//EN"
 "http://www.w3.org/TR/2001/REC-SVG-20010904/DTD/svg10.dtd">
<svg version="1.0" xmlns="http://www.w3.org/2000/svg"
 width="1024.000000pt" height="1024.000000pt" viewBox="0 0 1024.000000 1024.000000"
 preserveAspectRatio="xMidYMid meet">

<g transform="translate(0.000000,1024.000000) scale(0.100000,-0.100000)"
fill="#000000" stroke="none">
<path d="M4413 7667 c3 -8 8 -79 12 -159 4 -81 11 -152 15 -158 6 -9 17 -4 41
18 l33 31 24 -66 c32 -88 62 -135 131 -206 93 -97 218 -191 376 -284 50 -29
86 -53 81 -53 -15 0 -228 103 -296 143 -95 56 -195 133 -234 179 -22 25 -37
35 -41 28 -14 -22 6 -125 35 -186 l29 -60 88 -34 c239 -90 344 -164 413 -292
29 -53 32 -56 63 -52 102 13 248 24 319 24 l81 0 -7 53 c-10 75 -24 115 -63
174 -60 92 -142 153 -418 312 -88 51 -203 123 -255 161 -106 75 -240 195 -240
214 0 7 18 18 40 25 21 6 42 15 45 20 3 5 -16 22 -42 37 -27 15 -88 54 -136
86 -93 61 -102 66 -94 45z"/>
<path d="M3500 7428 c0 -9 120 -371 124 -375 2 -3 16 16 31 41 15 25 30 46 33
46 4 -1 26 -33 49 -73 108 -186 299 -306 718 -454 55 -20 104 -39 109 -43 24
-22 -281 54 -429 107 -91 33 -217 96 -278 140 -27 19 -51 32 -53 30 -3 -2 0
-26 6 -52 46 -207 189 -306 640 -441 l115 -35 -75 6 c-107 9 -298 51 -407 90
-51 18 -93 31 -93 29 0 -16 36 -84 65 -125 70 -95 203 -159 401 -193 105 -19
224 -51 268 -72 57 -28 151 -96 175 -126 l25 -31 -40 25 c-85 54 -204 104
-291 122 -31 7 -31 6 -41 -41 -6 -26 -14 -91 -18 -143 -6 -82 -10 -97 -30
-113 -49 -38 -56 -156 -13 -211 23 -30 69 -56 96 -56 15 0 18 9 20 54 7 207
257 301 405 153 34 -33 68 -109 68 -149 0 -15 6 -17 38 -13 20 3 163 16 317
30 154 14 299 28 321 31 l41 5 1 53 c1 135 101 235 235 236 113 0 203 -73 228
-186 14 -61 6 -59 131 -43 67 9 94 17 112 34 43 40 47 141 6 152 -13 3 -21 18
-25 46 -17 113 -64 191 -136 228 -22 11 -83 28 -137 39 -134 28 -129 26 -197
90 -249 236 -336 267 -665 238 -100 -9 -184 -18 -186 -21 -2 -2 -1 -22 4 -43
8 -38 9 -39 49 -36 22 2 44 -1 47 -6 3 -6 8 -79 11 -163 6 -167 6 -167 84
-253 l26 -28 -40 20 c-22 11 -59 39 -82 62 -66 67 -98 138 -133 300 -19 85
-45 171 -63 208 -66 136 -205 222 -552 342 -230 79 -373 138 -506 206 -102 53
-240 148 -245 169 -2 6 17 23 41 38 25 16 45 32 45 36 0 3 -73 31 -162 60 -90
30 -169 56 -175 58 -7 3 -13 3 -13 1z m2156 -1043 c28 -8 78 -33 112 -54 74
-48 209 -178 196 -190 -5 -4 -135 -18 -288 -30 -217 -18 -280 -20 -286 -11 -4
7 -11 56 -14 109 -4 53 -9 115 -12 138 -7 50 -8 50 137 52 67 1 123 -4 155
-14z m702 -359 c36 -19 59 -45 67 -78 7 -27 6 -28 -37 -28 -24 0 -54 7 -66 16
-24 17 -52 64 -52 89 0 19 51 20 88 1z m-799 -21 c2 -2 1 -11 -2 -20 -5 -11
-22 -15 -67 -15 -53 0 -61 2 -58 18 5 25 105 38 127 17z"/>
<path d="M5180 7213 c1 -5 9 -24 18 -43 16 -33 20 -35 82 -41 36 -3 68 -3 72
0 3 3 0 22 -8 42 -13 30 -21 38 -52 43 -51 8 -112 8 -112 -1z"/>
<path d="M5392 7168 c16 -49 27 -56 97 -64 l63 -7 -7 24 c-20 64 -22 66 -71
73 -26 3 -57 6 -70 6 -21 0 -22 -2 -12 -32z"/>
<path d="M5585 7149 c20 -64 22 -66 84 -79 34 -7 64 -10 67 -7 3 3 2 21 -1 41
-8 38 -27 49 -114 62 -42 7 -43 6 -36 -17z"/>
<path d="M5785 7083 c4 -21 8 -40 10 -44 5 -8 124 -43 129 -38 2 2 1 22 -3 43
-6 36 -10 41 -56 57 -80 28 -89 26 -80 -18z"/>
<path d="M5240 7070 c36 -30 87 -56 95 -48 2 2 -1 21 -7 41 -11 37 -11 37 -67
37 l-56 -1 35 -29z"/>
<path d="M5390 7084 c0 -20 25 -74 35 -75 5 0 32 -4 58 -8 46 -8 48 -7 43 13
-3 12 -6 29 -6 38 0 9 -8 19 -17 22 -38 11 -113 18 -113 10z"/>
<path d="M5580 7051 c0 -4 5 -22 11 -39 9 -26 19 -34 52 -42 23 -6 48 -13 55
-15 14 -5 16 23 3 58 -7 18 -22 27 -55 36 -54 13 -66 14 -66 2z"/>
<path d="M5970 7031 c0 -16 3 -37 6 -46 7 -17 111 -68 123 -61 4 3 6 17 5 33
-1 15 -3 34 -3 41 -1 12 -99 62 -121 62 -6 0 -10 -13 -10 -29z"/>
<path d="M5772 6973 c9 -36 14 -41 61 -56 28 -9 53 -15 55 -12 2 2 1 20 -2 40
-7 38 -27 51 -93 62 l-31 5 10 -39z"/>
<path d="M6150 6942 c0 -25 7 -45 18 -54 17 -15 96 -58 107 -58 3 0 5 20 5 44
0 43 -1 45 -54 75 -29 17 -59 31 -65 31 -6 0 -11 -17 -11 -38z"/>
<path d="M5447 6925 c26 -25 59 -47 73 -51 309 -72 460 -131 675 -262 170
-103 354 -261 480 -412 238 -286 418 -689 451 -1012 l7 -68 39 0 39 0 -6 58
c-38 327 -181 682 -393 970 -262 358 -680 647 -1098 758 -82 22 -285 64 -307
64 -5 0 13 -20 40 -45z"/>
<path d="M5944 6934 c3 -9 6 -26 6 -39 0 -18 11 -27 49 -44 27 -11 52 -21 55
-21 3 0 6 17 6 38 0 35 -3 40 -45 60 -55 26 -80 29 -71 6z"/>
<path d="M6120 6838 c0 -41 2 -44 49 -70 27 -16 52 -28 56 -28 3 0 5 19 3 41
-3 39 -7 44 -55 71 l-53 30 0 -44z"/>
<path d="M6326 6844 c-8 -42 -1 -53 64 -93 53 -33 60 -29 60 33 0 29 -7 37
-51 65 -28 17 -54 31 -59 31 -4 0 -11 -16 -14 -36z"/>
<path d="M6286 6773 c-3 -3 -6 -20 -6 -38 0 -26 8 -37 45 -63 25 -18 50 -32
55 -32 6 0 10 18 10 39 0 32 -5 43 -27 59 -43 30 -70 42 -77 35z"/>
<path d="M6497 6763 c-4 -3 -7 -23 -7 -43 0 -32 6 -43 41 -71 65 -54 67 -54
78 -12 15 52 17 48 -42 93 -57 42 -60 44 -70 33z"/>
<path d="M3631 6691 c-24 -21 -41 -43 -37 -49 3 -6 22 -16 41 -22 34 -11 37
-10 85 30 28 23 50 44 50 46 0 8 -60 34 -77 34 -10 0 -38 -18 -62 -39z"/>
<path d="M6447 6663 c-4 -3 -7 -21 -7 -39 0 -26 8 -39 39 -63 21 -17 43 -31
49 -31 5 0 12 16 14 36 4 32 0 39 -37 70 -45 36 -48 38 -58 27z"/>
<path d="M3716 6614 c-25 -19 -44 -39 -41 -43 2 -5 18 -14 34 -21 28 -11 34
-9 76 21 l47 34 -29 22 c-15 13 -31 23 -34 23 -3 0 -27 -16 -53 -36z"/>
<path d="M6656 6632 c-2 -4 -7 -23 -11 -42 -6 -34 -3 -38 44 -78 28 -24 51
-42 51 -40 0 2 7 21 14 43 l14 40 -47 42 c-47 44 -56 49 -65 35z"/>
<path d="M3480 6555 c-49 -49 -47 -62 11 -71 29 -4 40 1 77 34 49 45 52 59 16
72 -43 17 -58 12 -104 -35z"/>
<path d="M3789 6519 c-205 -164 -415 -423 -536 -663 -47 -94 -123 -281 -123
-303 0 -8 13 -13 35 -13 27 0 38 5 45 23 110 270 156 357 270 518 75 107 272
315 359 379 33 25 60 50 61 56 0 6 -10 20 -23 32 l-23 22 -65 -51z"/>
<path d="M6590 6525 c-5 -14 -10 -32 -10 -39 0 -12 70 -86 82 -86 4 0 12 16
18 36 13 39 4 55 -52 96 l-28 19 -10 -26z"/>
<path d="M3571 6486 c-38 -39 -35 -52 14 -61 25 -5 37 1 68 31 42 40 39 52
-14 60 -29 5 -39 1 -68 -30z"/>
<path d="M6792 6476 c-18 -48 -15 -57 30 -105 39 -41 42 -43 55 -25 30 41 27
62 -13 108 -51 58 -59 60 -72 22z"/>
<path d="M3361 6428 c-46 -46 -66 -77 -55 -88 5 -5 25 -11 44 -15 33 -6 38 -3
78 46 23 28 42 55 42 59 0 4 -11 11 -24 14 -13 3 -31 8 -38 11 -9 4 -29 -8
-47 -27z"/>
<path d="M6725 6387 c-8 -20 -15 -39 -15 -42 0 -8 72 -85 80 -85 8 0 30 45 30
63 0 7 -18 32 -40 56 l-40 44 -15 -36z"/>
<path d="M3453 6363 c-18 -20 -33 -42 -33 -49 0 -6 17 -15 37 -19 35 -6 40 -4
70 32 18 21 33 41 33 44 0 3 -16 11 -37 17 -35 11 -37 10 -70 -25z"/>
<path d="M6915 6321 l-18 -40 38 -50 c20 -28 40 -51 44 -51 5 0 16 18 26 39
l17 39 -38 51 c-21 28 -41 51 -45 51 -3 0 -14 -18 -24 -39z"/>
<path d="M3252 6291 c-16 -12 -72 -96 -72 -108 0 -7 8 -13 18 -13 9 0 27 -3
39 -6 17 -5 29 5 62 50 23 31 40 60 37 65 -7 10 -73 19 -84 12z"/>
<path d="M6856 6241 c-9 -16 -16 -36 -16 -44 0 -16 58 -97 70 -97 4 0 15 12
25 26 20 31 15 48 -33 107 l-31 38 -15 -30z"/>
<path d="M3329 6214 c-34 -50 -30 -64 22 -64 19 0 37 12 63 44 l36 44 -32 11
c-48 17 -55 14 -89 -35z"/>
<path d="M7028 6169 c-10 -17 -18 -35 -18 -40 0 -14 61 -109 70 -109 5 0 18
16 30 35 l21 35 -33 55 c-18 30 -37 55 -43 55 -5 0 -18 -14 -27 -31z"/>
<path d="M3122 6103 c-21 -30 -52 -88 -52 -98 0 -3 20 -5 44 -5 43 0 45 1 80
58 31 50 33 58 18 64 -38 15 -71 8 -90 -19z"/>
<path d="M3229 6064 c-33 -49 -36 -64 -11 -64 9 0 26 -3 37 -5 15 -4 27 5 48
37 16 24 29 47 30 53 1 5 -15 12 -36 16 -36 6 -40 4 -68 -37z"/>
<path d="M6966 6058 c-17 -32 -17 -34 9 -80 15 -27 30 -48 35 -48 12 0 40 47
40 67 0 20 -46 93 -59 93 -4 0 -16 -15 -25 -32z"/>
<path d="M7131 6001 c-12 -16 -21 -34 -21 -40 0 -14 53 -121 60 -121 3 1 17
17 32 36 l27 36 -30 59 c-16 32 -33 59 -38 59 -6 0 -19 -13 -30 -29z"/>
<path d="M3009 5895 c-16 -35 -29 -67 -29 -70 0 -3 20 -5 44 -5 43 0 44 1 75
59 17 32 31 64 31 70 0 6 -19 11 -46 11 l-45 0 -30 -65z"/>
<path d="M3132 5895 c-12 -25 -22 -50 -22 -55 0 -6 18 -10 40 -10 38 0 41 3
65 50 14 27 25 52 25 55 0 3 -19 5 -43 5 -41 0 -44 -2 -65 -45z"/>
<path d="M7063 5892 l-20 -27 24 -54 23 -54 25 23 c14 13 25 32 25 42 0 23
-37 98 -48 98 -5 0 -17 -12 -29 -28z"/>
<path d="M7216 5820 l-25 -31 20 -52 c32 -81 31 -80 67 -46 18 17 31 36 29 43
-39 91 -51 116 -57 116 -5 0 -20 -14 -34 -30z"/>
<path d="M5955 5814 c-72 -37 -108 -93 -108 -169 -1 -107 77 -185 185 -185 91
0 169 71 184 167 10 65 -34 148 -95 180 -52 27 -122 30 -166 7z m135 -122 c11
-13 20 -36 20 -49 0 -34 -42 -73 -80 -73 -38 0 -80 39 -80 73 0 32 34 75 63
79 35 6 56 -2 77 -30z"/>
<path d="M2961 5766 c-15 -18 -52 -126 -43 -127 21 -3 69 4 79 13 6 5 18 28
26 51 8 23 18 50 22 60 6 14 1 17 -33 17 -22 0 -45 -6 -51 -14z"/>
<path d="M3060 5728 c-28 -62 -26 -68 20 -68 22 0 40 2 40 5 0 2 9 27 20 55
l20 50 -41 0 c-37 0 -41 -3 -59 -42z"/>
<path d="M7147 5722 l-27 -28 17 -52 c9 -29 19 -52 22 -52 3 0 18 11 33 25
l27 23 -16 49 c-21 65 -25 67 -56 35z"/>
<path d="M4763 5691 c-52 -24 -100 -88 -109 -147 -5 -36 -2 -54 20 -97 29 -60
72 -93 133 -103 63 -10 110 3 153 42 78 71 89 174 28 248 -59 71 -145 93 -225
57z m136 -117 c12 -15 21 -37 21 -49 0 -12 -9 -34 -21 -49 -16 -20 -29 -26
-59 -26 -30 0 -43 6 -59 26 -12 15 -21 37 -21 49 0 12 9 34 21 49 16 20 29 26
59 26 30 0 43 -6 59 -26z"/>
<path d="M7288 5633 l-27 -28 17 -62 c10 -34 20 -64 23 -67 3 -3 20 7 39 23
l34 28 -18 66 c-10 37 -24 67 -30 67 -7 0 -24 -12 -38 -27z"/>
<path d="M4240 5629 c-69 -11 -206 -30 -305 -43 -214 -29 -181 -31 180 -11
149 8 276 15 283 15 7 0 12 13 12 30 0 36 5 35 -170 9z"/>
<path d="M2927 5590 c-44 -8 -44 -8 -52 -43 -7 -26 -6 -27 38 -27 25 0 48 3
50 8 10 16 18 72 10 71 -4 -1 -25 -5 -46 -9z"/>
<path d="M3012 5587 c-6 -6 -13 -23 -17 -37 -6 -24 -5 -25 38 -22 40 3 45 7
55 38 l10 34 -38 0 c-21 0 -42 -6 -48 -13z"/>
<path d="M7202 5537 c-20 -22 -21 -25 -7 -76 7 -29 15 -55 17 -57 3 -2 19 9
37 24 l32 27 -16 53 c-17 57 -31 64 -63 29z"/>
<path d="M3870 5504 c-877 -69 -922 -73 -785 -69 72 3 409 10 750 16 341 6
626 12 633 15 9 3 5 12 -12 31 -15 15 -26 31 -26 35 0 13 -127 7 -560 -28z"/>
<path d="M7350 5442 l-34 -29 12 -63 c6 -34 13 -65 16 -67 6 -7 64 29 70 42 5
13 -8 88 -21 123 l-9 22 -34 -28z"/>
<path d="M6037 5357 c-11 -41 -84 -115 -140 -144 -110 -55 -287 -66 -594 -37
-461 44 -803 -15 -1178 -203 -71 -36 -209 -124 -255 -164 l-25 -21 35 21 c162
100 446 209 651 250 223 45 455 52 705 21 365 -45 527 -45 642 -2 76 29 117
64 147 126 21 44 25 65 23 117 -2 51 -5 58 -11 36z"/>
<path d="M7257 5357 c-28 -22 -29 -25 -22 -80 4 -31 9 -57 12 -57 3 0 18 8 34
17 20 12 29 25 29 43 0 38 -12 100 -19 100 -3 0 -19 -10 -34 -23z"/>
<path d="M3816 5277 c-60 -12 -111 -26 -113 -32 -2 -6 -56 -9 -143 -7 -134 3
-140 2 -140 -17 0 -12 8 -21 21 -23 12 -2 27 -11 33 -21 14 -22 -4 -55 -146
-275 -192 -299 -221 -342 -227 -342 -4 0 -23 129 -43 288 -40 320 -39 329 22
346 33 9 50 22 50 39 0 4 -81 7 -180 7 -171 0 -180 -1 -180 -19 0 -11 8 -22
19 -26 51 -16 52 -24 153 -765 l13 -95 45 -3 45 -2 84 132 c182 285 434 665
463 695 17 18 45 35 62 39 17 3 33 10 36 14 8 12 68 -1 74 -17 3 -8 -5 -55
-19 -104 -14 -49 -38 -140 -54 -202 -46 -179 -122 -440 -137 -469 -10 -19 -27
-31 -54 -38 -22 -6 -40 -15 -40 -20 0 -6 -1 -13 -2 -16 -2 -3 70 -6 159 -7
137 -2 163 0 166 13 1 9 -9 20 -25 27 -36 16 -36 33 2 183 17 65 30 124 30
130 0 7 -30 -5 -67 -26 l-68 -38 41 50 c22 27 49 62 59 77 22 34 159 142 235
186 30 17 48 31 39 31 -23 0 -85 -27 -130 -57 -22 -14 -41 -24 -44 -21 -2 2
17 83 44 178 67 245 64 230 44 229 -10 0 -67 -10 -127 -22z"/>
<path d="M6345 5246 c-251 -49 -443 -221 -506 -453 -55 -201 15 -372 178 -433
131 -49 289 -49 475 1 88 24 74 1 133 214 37 136 55 165 101 165 17 0 24 6 24
20 0 20 -5 20 -172 18 -155 -3 -173 -5 -176 -20 -3 -13 3 -18 20 -18 13 0 34
-7 47 -16 26 -18 27 -10 -21 -183 -37 -133 -44 -140 -150 -148 -90 -7 -141 7
-200 51 -78 60 -105 178 -74 326 60 285 297 471 518 406 70 -20 102 -56 118
-131 10 -47 15 -55 34 -55 20 0 25 10 49 102 17 68 22 106 16 114 -32 39 -291
64 -414 40z"/>
<path d="M7374 5237 c-24 -21 -26 -27 -20 -70 7 -47 7 -47 47 -47 39 0 39 0
39 39 0 58 -11 101 -26 101 -7 0 -25 -10 -40 -23z"/>
<path d="M7283 5169 c-46 -29 -43 -49 7 -49 39 0 40 1 40 35 0 41 -4 42 -47
14z"/>
<path d="M4675 4972 c-27 -10 -64 -26 -81 -35 -44 -22 -142 -114 -169 -157
-71 -113 -91 -267 -45 -350 45 -80 125 -115 246 -108 82 6 155 35 251 104 61
43 63 47 48 64 -16 18 -18 17 -60 -11 -65 -44 -127 -62 -191 -57 -94 8 -146
66 -148 166 l-1 57 232 3 232 2 12 54 c26 119 -8 223 -88 261 -56 27 -175 30
-238 7z m152 -68 c24 -24 25 -30 21 -103 -2 -42 -8 -83 -12 -89 -5 -8 -50 -12
-147 -12 -160 0 -156 -3 -110 88 46 90 111 142 179 142 33 0 49 -6 69 -26z"/>
<path d="M5381 4966 c-123 -47 -205 -120 -262 -235 -66 -133 -65 -266 4 -339
47 -51 95 -67 198 -67 90 0 99 2 170 37 40 21 94 56 119 77 42 37 44 41 29 56
-15 16 -20 15 -59 -14 -47 -34 -125 -61 -177 -61 -18 0 -53 9 -78 21 -55 26
-85 81 -85 157 l0 52 232 2 232 3 13 50 c18 65 11 155 -16 198 -50 82 -195
110 -320 63z m159 -56 c26 -26 34 -61 27 -121 -11 -90 -8 -89 -168 -89 l-140
0 6 23 c10 30 52 107 74 134 57 69 158 96 201 53z"/>
<path d="M7090 4968 c-119 -42 -214 -128 -273 -248 -29 -59 -32 -73 -32 -161
0 -92 2 -100 30 -140 78 -111 274 -132 437 -47 128 68 227 216 236 353 7 119
-23 183 -112 231 -72 40 -193 45 -286 12z m164 -49 c45 -21 59 -69 54 -183
-10 -193 -99 -341 -217 -361 -87 -15 -131 43 -131 172 0 246 151 437 294 372z"/>
<path d="M4215 4919 c-144 -61 -135 -55 -123 -87 13 -33 1 -86 -66 -310 -33
-110 -52 -141 -86 -142 -20 0 -38 -12 -42 -28 -2 -10 32 -13 156 -14 136 0
160 2 168 15 7 13 3 18 -16 23 -53 13 -53 11 28 314 28 103 34 211 14 228 -8
5 -21 6 -33 1z"/>
<path d="M5859 4248 c-30 -45 -55 -86 -57 -90 -2 -4 13 -8 33 -8 32 0 36 -2
25 -15 -10 -12 -9 -16 5 -21 11 -4 22 1 32 16 13 19 22 21 56 16 35 -6 39 -5
32 11 -4 10 -18 50 -32 88 -14 39 -29 74 -33 78 -4 4 -31 -29 -61 -75z"/>
<path d="M2915 4200 c-3 -6 13 -50 18 -50 9 0 47 38 47 46 0 9 -60 13 -65 4z"/>
<path d="M3059 4191 l-23 -18 18 -49 c25 -66 28 -68 59 -36 27 28 27 28 11 75
-17 51 -30 57 -65 28z"/>
<path d="M3160 4197 c0 -2 18 -47 39 -101 193 -473 594 -884 1071 -1097 248
-110 473 -164 775 -184 191 -13 463 23 681 89 540 163 979 529 1250 1040 54
102 104 218 104 241 0 7 -16 12 -35 13 -33 1 -36 -1 -57 -51 -123 -294 -339
-591 -568 -782 -290 -242 -650 -403 -1015 -455 -128 -18 -355 -25 -355 -12 0
7 5 12 10 12 6 0 10 7 10 16 0 14 -7 15 -37 10 -21 -3 -44 -6 -50 -6 -7 0 -13
-7 -13 -16 0 -14 -10 -15 -72 -9 -461 46 -924 283 -1256 641 -159 171 -314
419 -391 627 -9 23 -16 27 -51 27 -22 0 -40 -2 -40 -3z"/>
<path d="M7220 4128 c-10 -24 -22 -55 -25 -70 -6 -25 -4 -28 16 -28 54 0 68
11 89 66 11 30 20 59 20 64 0 6 -18 10 -41 10 -38 0 -41 -3 -59 -42z"/>
<path d="M7121 4145 c-11 -12 -41 -84 -41 -96 0 -5 18 -9 39 -9 39 0 40 1 60
55 12 31 21 58 21 61 0 9 -71 0 -79 -11z"/>
<path d="M2975 4120 l-28 -29 28 -66 c15 -36 29 -65 31 -65 10 0 54 57 54 71
0 21 -41 119 -49 119 -4 0 -20 -13 -36 -30z"/>
<path d="M5763 4052 c-32 -17 -42 -35 -24 -47 14 -8 81 34 81 51 0 18 -17 17
-57 -4z"/>
<path d="M3137 4022 l-26 -27 24 -53 c13 -28 28 -52 33 -52 13 0 42 45 42 65
0 15 -37 95 -43 95 -2 0 -15 -12 -30 -28z"/>
<path d="M5608 3988 c-31 -11 -38 -38 -9 -38 36 0 80 21 74 36 -6 16 -26 17
-65 2z"/>
<path d="M7156 3968 c-24 -37 -47 -98 -41 -108 4 -6 23 -10 43 -10 35 1 38 3
64 61 16 34 25 65 22 70 -3 5 -21 9 -39 9 -25 0 -39 -6 -49 -22z"/>
<path d="M7019 3930 c-15 -27 -24 -52 -21 -55 3 -3 22 -5 43 -5 35 0 41 4 59
40 30 58 27 70 -17 70 -35 0 -40 -4 -64 -50z"/>
<path d="M3052 3936 l-24 -35 32 -60 c18 -34 36 -61 39 -61 3 0 17 17 30 37
l24 37 -31 55 c-17 31 -34 57 -39 58 -4 2 -19 -13 -31 -31z"/>
<path d="M5448 3953 c-20 -3 -28 -10 -28 -24 0 -15 5 -18 25 -14 14 3 36 7 50
10 16 4 22 10 19 20 -6 15 -14 16 -66 8z"/>
<path d="M5268 3923 c-22 -6 -23 -22 -3 -29 25 -10 85 5 85 21 0 15 -42 19
-82 8z"/>
<path d="M5108 3903 c-29 -7 -21 -33 10 -33 42 0 72 11 72 26 0 14 -43 17 -82
7z"/>
<path d="M4948 3883 c-30 -8 -21 -33 11 -33 39 0 61 9 61 26 0 14 -34 17 -72
7z"/>
<path d="M3220 3850 l-22 -30 29 -47 c16 -26 34 -48 39 -50 6 -2 18 11 27 29
15 31 15 34 -11 80 -15 26 -30 48 -34 48 -4 0 -16 -14 -28 -30z"/>
<path d="M4778 3863 c-33 -8 -20 -33 16 -33 44 0 66 9 66 26 0 14 -43 17 -82
7z"/>
<path d="M4623 3843 c-13 -2 -23 -11 -23 -19 0 -12 11 -14 48 -12 34 2 47 7
47 18 0 16 -32 21 -72 13z"/>
<path d="M4480 3821 c-23 -4 -36 -12 -38 -25 -4 -17 0 -18 39 -12 24 4 48 11
53 16 9 9 0 31 -12 29 -4 -1 -23 -4 -42 -8z"/>
<path d="M6927 3769 c-33 -50 -34 -59 -3 -59 13 0 31 -3 39 -6 11 -4 24 9 41
39 35 59 33 67 -12 67 -34 0 -42 -5 -65 -41z"/>
<path d="M7042 3756 c-17 -30 -32 -59 -32 -65 0 -6 14 -12 30 -12 17 -1 35 -2
42 -3 15 -1 81 111 73 124 -3 6 -23 10 -43 10 -34 0 -40 -4 -70 -54z"/>
<path d="M3151 3766 c-12 -18 -21 -37 -21 -42 0 -19 71 -114 81 -109 5 4 16
20 25 36 14 29 14 32 -16 84 -17 30 -35 57 -40 60 -4 3 -18 -10 -29 -29z"/>
<path d="M4303 3780 c-24 -10 -30 -25 -13 -35 15 -9 90 17 90 32 0 15 -43 17
-77 3z"/>
<path d="M4175 3708 c-20 -24 -23 -33 -13 -39 14 -9 81 48 72 63 -10 16 -33 7
-59 -24z"/>
<path d="M3326 3684 c-17 -36 -17 -37 10 -75 38 -55 53 -66 65 -48 23 35 20
57 -13 108 -18 28 -36 51 -39 51 -3 0 -13 -16 -23 -36z"/>
<path d="M6822 3618 c-17 -23 -32 -45 -32 -49 0 -7 79 -24 84 -17 1 1 14 20
29 40 33 45 34 58 3 58 -13 0 -30 2 -38 5 -8 3 -27 -12 -46 -37z"/>
<path d="M6933 3593 c-18 -27 -33 -54 -33 -60 0 -7 17 -15 37 -19 33 -6 40 -4
63 25 32 37 55 79 49 86 -3 2 -23 7 -44 10 -39 6 -41 5 -72 -42z"/>
<path d="M3257 3601 c-24 -42 -22 -51 27 -106 l43 -50 17 32 c9 18 16 38 16
45 -1 16 -67 108 -78 108 -4 0 -15 -13 -25 -29z"/>
<path d="M4169 3609 c-11 -8 -8 -14 16 -34 17 -14 35 -25 42 -25 25 0 20 17
-11 42 -23 19 -37 23 -47 17z"/>
<path d="M3452 3525 c-18 -38 -15 -46 28 -95 33 -37 41 -42 50 -30 26 38 23
60 -15 105 -20 25 -40 45 -44 45 -4 0 -13 -11 -19 -25z"/>
<path d="M4305 3542 c-15 -15 0 -31 39 -41 57 -14 56 -14 56 7 0 14 -12 21
-45 29 -24 6 -47 8 -50 5z"/>
<path d="M4465 3500 c-10 -17 -1 -22 50 -30 40 -6 45 -5 45 12 0 10 -6 18 -14
18 -7 0 -27 3 -44 6 -18 4 -32 1 -37 -6z"/>
<path d="M6701 3474 c-17 -19 -29 -39 -26 -43 2 -5 21 -12 41 -15 33 -7 39 -4
69 31 30 34 32 39 17 51 -30 23 -68 14 -101 -24z"/>
<path d="M4632 3473 c4 -24 93 -27 93 -3 0 11 -13 16 -48 18 -42 3 -48 1 -45
-15z"/>
<path d="M3375 3450 c-22 -42 -19 -50 31 -103 49 -51 53 -51 73 0 13 31 11 34
-31 82 -23 28 -46 51 -50 51 -4 0 -14 -13 -23 -30z"/>
<path d="M4795 3470 c-12 -19 6 -30 51 -30 37 0 44 3 44 20 0 17 -7 20 -44 20
-25 0 -48 -4 -51 -10z"/>
<path d="M6804 3434 c-52 -62 -53 -71 -7 -83 38 -11 38 -11 85 41 26 29 48 58
48 64 0 10 -43 24 -75 24 -6 0 -29 -21 -51 -46z"/>
<path d="M4960 3450 c0 -19 5 -21 48 -18 34 2 47 7 47 18 0 11 -13 16 -47 18
-43 3 -48 1 -48 -18z"/>
<path d="M5123 3445 c0 -10 11 -15 33 -15 18 0 39 -3 48 -6 12 -4 16 0 16 15
0 18 -6 21 -48 21 -37 0 -49 -4 -49 -15z"/>
<path d="M5294 3451 c-2 -2 -4 -10 -4 -18 0 -9 15 -13 50 -13 36 0 50 4 50 14
0 9 -15 15 -46 18 -25 2 -47 1 -50 -1z"/>
<path d="M5456 3425 c4 -10 20 -15 50 -15 32 0 44 4 44 15 0 11 -12 15 -50 15
-40 0 -48 -3 -44 -15z"/>
<path d="M5620 3416 c0 -18 6 -21 58 -30 27 -5 32 -3 32 14 0 11 -6 20 -14 20
-7 0 -28 3 -45 6 -25 5 -31 3 -31 -10z"/>
<path d="M3590 3386 c-17 -46 -12 -63 33 -100 l42 -35 13 37 c12 36 12 37 -32
81 l-45 45 -11 -28z"/>
<path d="M5784 3389 c-10 -17 7 -27 50 -31 52 -4 59 18 9 31 -47 13 -50 13
-59 0z"/>
<path d="M6577 3344 c-21 -20 -37 -37 -35 -39 2 -1 18 -10 37 -20 l34 -17 41
41 c43 44 42 55 -9 65 -25 5 -37 0 -68 -30z"/>
<path d="M5934 3329 c-10 -17 53 -76 66 -63 8 8 3 20 -15 43 -29 33 -40 38
-51 20z"/>
<path d="M3508 3289 l-12 -42 49 -43 c28 -24 53 -44 57 -44 4 0 12 19 18 41
11 41 11 42 -31 85 -24 24 -49 44 -56 44 -7 0 -18 -19 -25 -41z"/>
<path d="M6659 3283 c-27 -25 -49 -49 -49 -53 0 -4 18 -15 40 -25 l41 -18 50
49 c27 26 48 53 46 58 -2 5 -20 15 -41 22 -37 13 -38 13 -87 -33z"/>
<path d="M3726 3243 c-6 -35 -3 -41 36 -75 24 -21 48 -38 55 -38 6 0 13 17 15
38 3 34 -1 40 -43 75 -26 20 -49 37 -52 37 -2 0 -7 -17 -11 -37z"/>
<path d="M6435 3223 l-47 -37 40 -20 40 -19 46 38 c25 22 44 40 43 42 -2 1
-19 9 -39 17 -35 15 -36 15 -83 -21z"/>
<path d="M5947 3182 c-21 -22 -24 -31 -15 -40 9 -9 18 -6 40 15 30 28 37 53
15 53 -7 0 -25 -13 -40 -28z"/>
<path d="M3661 3168 c-17 -49 -15 -55 45 -99 61 -47 74 -44 74 18 0 25 -8 38
-42 66 -63 50 -65 50 -77 15z"/>
<path d="M6508 3152 c-26 -20 -47 -40 -48 -45 0 -7 59 -47 71 -47 10 0 109 81
109 89 0 7 -65 41 -78 41 -4 -1 -28 -18 -54 -38z"/>
<path d="M3886 3144 c-15 -40 -6 -63 38 -94 25 -16 49 -30 55 -30 6 0 11 18
11 40 0 35 -5 42 -44 70 -52 35 -52 35 -60 14z"/>
<path d="M6278 3113 c-21 -14 -38 -29 -38 -33 0 -4 16 -15 35 -25 l34 -19 43
31 c52 38 55 46 23 61 -37 17 -55 14 -97 -15z"/>
<path d="M5820 3116 c-19 -7 -36 -20 -38 -29 -4 -20 -1 -20 49 -5 27 8 39 17
39 30 0 21 -3 21 -50 4z"/>
<path d="M3826 3064 c-3 -9 -6 -30 -6 -47 0 -27 8 -37 50 -64 27 -18 54 -33
59 -33 11 0 24 66 16 80 -5 7 -61 48 -101 73 -7 4 -15 0 -18 -9z"/>
<path d="M5658 3068 c-43 -11 -52 -38 -14 -38 36 0 78 18 74 32 -6 16 -17 17
-60 6z"/>
<path d="M6345 3035 c-28 -20 -51 -39 -53 -44 -1 -4 15 -16 36 -25 34 -16 43
-16 63 -4 67 38 89 54 89 64 0 9 -61 44 -78 44 -4 0 -30 -16 -57 -35z"/>
<path d="M4046 3025 c-4 -19 -4 -40 -1 -45 6 -10 98 -60 110 -60 3 0 5 19 3
43 -3 39 -6 44 -54 70 l-52 27 -6 -35z"/>
<path d="M5493 3033 c-32 -4 -51 -27 -32 -39 10 -6 76 3 91 12 11 7 -2 34 -16
32 -6 0 -25 -3 -43 -5z"/>
<path d="M6118 3017 c-21 -12 -38 -25 -38 -29 0 -4 12 -16 28 -26 l27 -20 53
26 c28 14 52 29 52 33 0 10 -54 39 -72 39 -7 -1 -30 -11 -50 -23z"/>
<path d="M5313 2993 c-33 -6 -29 -33 5 -33 42 0 72 11 72 26 0 14 -29 16 -77
7z"/>
<path d="M3996 2963 c-3 -3 -6 -23 -6 -44 0 -36 4 -41 53 -69 70 -40 77 -39
77 14 0 43 -1 44 -59 74 -32 18 -61 29 -65 25z"/>
<path d="M4217 2944 c-8 -44 2 -59 56 -81 l52 -21 3 30 c5 45 -3 57 -54 78
-25 11 -47 20 -49 20 -1 0 -5 -12 -8 -26z"/>
<path d="M5153 2963 c-22 -4 -32 -27 -15 -36 16 -9 92 15 92 29 0 14 -28 17
-77 7z"/>
<path d="M5953 2937 c-29 -11 -53 -22 -52 -26 0 -3 14 -17 31 -30 l30 -24 56
27 c54 27 56 29 37 43 -40 30 -50 31 -102 10z"/>
<path d="M6173 2932 c-29 -15 -53 -32 -53 -39 0 -6 15 -21 33 -32 l34 -21 56
31 c31 17 59 34 62 39 6 10 -52 50 -70 49 -5 0 -34 -12 -62 -27z"/>
<path d="M4394 2882 c2 -9 7 -29 10 -44 5 -22 16 -30 72 -48 36 -12 67 -20 69
-18 3 2 2 21 -2 42 -6 40 -9 42 -102 70 -49 14 -52 14 -47 -2z"/>
<path d="M5770 2873 c-25 -9 -47 -17 -49 -19 -8 -8 43 -54 59 -54 9 0 38 7 64
16 l47 16 -27 29 c-31 33 -33 33 -94 12z"/>
<path d="M4170 2835 l0 -46 65 -30 c35 -16 67 -29 70 -29 7 0 6 49 -1 76 -3
11 -17 25 -32 31 -15 6 -44 18 -64 27 l-38 16 0 -45z"/>
<path d="M5993 2844 c-29 -13 -53 -27 -53 -32 0 -10 56 -52 69 -52 6 0 36 12
67 26 l57 26 -31 29 c-37 34 -41 34 -109 3z"/>
<path d="M4604 2804 c9 -48 14 -53 62 -65 70 -16 73 -14 62 30 -9 35 -14 40
-53 50 -23 6 -50 14 -60 17 -16 6 -17 3 -11 -32z"/>
<path d="M5576 2821 c-16 -3 -31 -11 -33 -16 -5 -16 47 -67 62 -61 8 3 30 8
49 12 47 8 53 20 25 50 -23 24 -46 28 -103 15z"/>
<path d="M4360 2762 c0 -47 12 -59 77 -77 26 -7 56 -16 66 -20 13 -6 17 -2 17
18 0 55 -16 74 -74 91 -30 9 -62 19 -71 22 -12 5 -15 -2 -15 -34z"/>
<path d="M4784 2785 c3 -9 9 -28 12 -41 3 -13 13 -25 22 -28 30 -9 112 -18
112 -13 0 2 -7 21 -15 40 -12 30 -21 37 -52 42 -21 3 -49 8 -62 11 -19 4 -22
2 -17 -11z"/>
<path d="M5401 2789 c-24 -5 -46 -11 -49 -14 -3 -3 4 -18 15 -33 19 -24 26
-27 74 -25 70 3 80 15 44 53 -16 16 -31 30 -34 29 -3 -1 -26 -5 -50 -10z"/>
<path d="M5798 2772 c-27 -8 -48 -18 -48 -22 0 -3 13 -19 30 -35 l30 -29 52
17 c83 27 87 32 53 61 -34 29 -51 31 -117 8z"/>
<path d="M4974 2769 c-2 -3 5 -21 14 -40 16 -32 20 -34 75 -37 63 -3 67 2 40
48 -14 25 -23 29 -71 32 -30 2 -56 0 -58 -3z"/>
<path d="M5160 2763 c0 -5 9 -23 21 -42 20 -33 21 -34 76 -28 30 3 57 8 60 11
3 3 -5 19 -17 35 -20 29 -26 31 -81 31 -32 0 -59 -3 -59 -7z"/>
<path d="M4570 2716 c0 -7 5 -27 11 -44 9 -26 18 -32 60 -41 93 -20 100 -16
75 43 -12 29 -21 35 -66 45 -66 14 -80 14 -80 -3z"/>
<path d="M5625 2725 c-5 -2 -22 -6 -37 -9 -16 -4 -28 -12 -28 -19 0 -7 12 -25
28 -39 27 -25 27 -25 90 -11 67 16 75 27 39 61 -21 20 -62 27 -92 17z"/>
<path d="M4764 2688 c-3 -5 3 -25 13 -46 17 -35 21 -37 82 -45 35 -4 65 -6 67
-4 2 2 -2 21 -9 43 -14 38 -15 39 -81 50 -37 6 -69 7 -72 2z"/>
<path d="M5423 2688 c-35 -6 -63 -14 -63 -20 0 -5 10 -23 21 -40 21 -29 24
-30 77 -23 93 12 98 18 55 63 -27 28 -29 29 -90 20z"/>
<path d="M4960 2663 c1 -5 9 -24 18 -43 17 -34 18 -35 86 -38 l68 -3 -6 28
c-11 46 -40 63 -107 63 -32 0 -59 -3 -59 -7z"/>
<path d="M5167 2664 c-3 -4 3 -25 14 -47 l21 -40 66 7 c36 4 68 9 70 11 2 2
-6 20 -18 39 -21 35 -23 36 -84 36 -35 0 -65 -3 -69 -6z"/>
</g>
</svg>
